<?xml version="1.0" standalone="no"?>
<!DOCTYPE svg PUBLIC "-//W3C//DTD SVG 20010904//EN"
 "http://www.w3.org/TR/2001/REC-SVG-20010904/DTD/svg10.dtd">
<svg version="1.0" xmlns="http://www.w3.org/2000/svg"
 width="796.000000pt" height="796.000000pt" viewBox="0 0 796.000000 796.000000"
 preserveAspectRatio="xMidYMid meet">
<metadata>
Created by potrace 1.14, written by Peter Selinger 2001-2017
</metadata>
<g transform="translate(0.000000,796.000000) scale(0.100000,-0.100000)"
fill="#000000" stroke="none">
<path d="M1605 6630 c-154 -28 -159 -29 -206 -46 -24 -8 -51 -17 -59 -19 -53
-11 -290 -123 -320 -150 -9 -8 -20 -15 -23 -15 -7 0 -133 -86 -153 -104 -7 -6
-38 -33 -70 -61 -63 -54 -149 -142 -185 -190 -13 -16 -29 -34 -36 -38 -7 -4
-13 -12 -13 -17 0 -9 -19 -36 -47 -65 -7 -8 -13 -16 -13 -20 0 -4 -14 -26 -31
-51 -16 -24 -37 -59 -45 -77 -8 -17 -19 -39 -24 -47 -30 -46 -112 -261 -125
-328 -2 -9 -4 -17 -5 -17 -2 0 -6 -19 -14 -65 -3 -19 -8 -46 -11 -60 -5 -24
-10 -70 -20 -190 -3 -30 -7 -75 -10 -100 -3 -25 -7 -76 -10 -115 -7 -98 -15
-192 -21 -242 -2 -24 -7 -69 -9 -100 -9 -112 -15 -179 -20 -235 -4 -32 -8 -81
-10 -110 -2 -29 -6 -80 -10 -113 -3 -33 -8 -85 -10 -115 -2 -30 -4 -55 -5 -55
0 0 -3 -27 -5 -60 -3 -33 -7 -89 -11 -125 -3 -36 -7 -87 -9 -115 -2 -27 -6
-72 -9 -100 -3 -27 -8 -86 -11 -130 -4 -44 -8 -96 -11 -115 -2 -19 -7 -71 -10
-115 -3 -44 -7 -98 -9 -120 -17 -159 -20 -206 -19 -335 0 -145 4 -188 24 -290
12 -62 59 -220 70 -235 4 -5 15 -30 24 -54 43 -112 160 -282 268 -390 210
-211 471 -340 788 -389 58 -9 5082 -9 5135 0 22 4 54 10 70 13 17 4 39 8 50
10 143 21 393 125 558 232 154 99 319 252 417 386 19 26 45 60 57 75 13 15 23
33 23 40 0 6 5 12 10 12 6 0 10 4 10 10 0 5 16 34 35 64 19 30 35 62 35 70 0
8 4 16 8 18 18 7 90 202 121 323 20 84 29 130 36 205 11 112 17 168 20 210 2
25 6 70 9 100 3 30 8 91 11 135 3 44 8 103 11 130 6 59 11 115 19 210 3 39 8
90 10 115 10 105 17 178 20 220 1 25 6 74 9 110 3 36 8 94 11 130 3 36 7 86
11 111 3 26 7 73 9 105 7 99 14 187 20 234 2 25 7 77 11 115 3 39 7 90 9 115
2 25 6 70 9 100 2 30 8 93 13 140 10 101 10 356 1 420 -12 76 -19 113 -30 155
-22 83 -51 171 -66 200 -9 17 -17 32 -17 35 -11 40 -89 173 -151 256 -190 253
-499 447 -805 505 -35 6 -75 14 -89 17 -14 4 -1163 7 -2555 8 -2395 2 -2535 1
-2630 -16z"/>
</g>
</svg>
