<svg id="Layer_1" data-name="Layer 1" xmlns="http://www.w3.org/2000/svg" xmlns:xlink="http://www.w3.org/1999/xlink" viewBox="0 0 199.34 133.91"><defs><style>.cls-1{fill:url(#linear-gradient);}.cls-2,.cls-3{stroke:#fff;stroke-miterlimit:10;stroke-width:3px;}.cls-2{fill:url(#White_Black);}.cls-3{fill:url(#White_Black-2);}</style><linearGradient id="linear-gradient" x1="-658.91" y1="-1.62" x2="195.5" y2="75.11" gradientUnits="userSpaceOnUse"><stop offset="0" stop-color="#fff"/><stop offset="1" stop-color="#231f20"/></linearGradient><linearGradient id="White_Black" x1="22.96" y1="68.86" x2="91.72" y2="68.86" xlink:href="#linear-gradient"/><linearGradient id="White_Black-2" x1="75.75" y1="57.23" x2="177.68" y2="57.23" xlink:href="#linear-gradient"/></defs><title>logo</title><path class="cls-1" d="M153.81,133.52H35.12C14.35,133.52-1,116.68.8,95.91L5.93,37.22C7.75,16.45,26.06-.39,46.83-.39h118.7c20.77,0,36.13,16.84,34.32,37.61l-5.14,58.69C192.89,116.68,174.58,133.52,153.81,133.52Z" transform="translate(-0.65 0.39)"/><path class="cls-2" d="M91.72,18.25q0,3-3.76,8.69a64.19,64.19,0,0,1-9.17,10.89q-.71,3.59-2.06,13-2.19,14.74-4,20.93a47.45,47.45,0,0,1-6,12.58q-12.14,18.52-27.21,18.52a12.92,12.92,0,0,1-7.63-2.32A34,34,0,0,0,30,110.6a22,22,0,0,0,2.24,9.93,1.67,1.67,0,0,1,.23.88c0,.33-.13.5-.39.5-.6,0-1.25-1.3-1.94-3.9a28.53,28.53,0,0,1-1-7.29,34,34,0,0,1,2-10.81Q23,93.13,23,76.62a60.32,60.32,0,0,1,3.89-21.09A64.12,64.12,0,0,1,37.79,36.64Q46.79,26,55.59,26A8.68,8.68,0,0,1,63.2,30.3Q66,34.64,66,42a50.33,50.33,0,0,1-.7,8.22q5.73-6.15,10.12-10.42a70.36,70.36,0,0,1,7-16.94q4.24-7.09,7.4-7.1C91.11,15.8,91.72,16.62,91.72,18.25ZM65.32,41.79q0-6.6-2.59-10.61a7.82,7.82,0,0,0-6.83-4q-10.47,0-20.27,17.58a73.9,73.9,0,0,0-9.79,36.4q0,12.38,5.65,17.58a98.66,98.66,0,0,1,7.59-15.38,14.28,14.28,0,0,1-2.57-8.54A13,13,0,0,1,38,68.37c1-1.78,2.18-2.67,3.58-2.67q2.61,0,2.61,3.89a6.28,6.28,0,0,1-1,3.49,2.77,2.77,0,0,1-2.3,1.47c-1.27,0-1.91-1-1.91-3a5.9,5.9,0,0,1,.39-2c.1-.54.16-.85.16-.94,0-.25-.08-.37-.24-.37-.44,0-.89.75-1.36,2.25a15,15,0,0,0-.7,4.46,12.31,12.31,0,0,0,2.37,7.41Q47.45,69.1,64.35,51.33A55.9,55.9,0,0,0,65.32,41.79ZM75,41.54q-4.56,4.64-10,10.54a66,66,0,0,1-9,23.35q-6.45,10-12.37,10A7,7,0,0,1,39.7,84a96.87,96.87,0,0,0-7.47,15.44,12,12,0,0,0,7.24,2.32q7.32,0,14.17-6.68T65.4,76.5A89.56,89.56,0,0,0,69,66.24q1.32-4.74,4.28-17.86Q74,45.11,75,41.54ZM64,53.09l-2.57,2.82Q46.71,72.23,40.21,83.09a5.34,5.34,0,0,0,3.5,1.38q5.46,0,11.41-9.23A67.62,67.62,0,0,0,64,53.09ZM91,18.38c0-1-.37-1.51-1.09-1.51q-2.61,0-5.82,5.81a51.36,51.36,0,0,0-5,13.58A64.32,64.32,0,0,0,87.61,26.1C89.86,22.71,91,20.13,91,18.38Z" transform="translate(-0.65 0.39)"/><path class="cls-3" d="M177.68,32.81a21.73,21.73,0,0,1-7.51,16.82q-3.27,3-4.48,2.95c-.21,0-.31-.16-.31-.5s.38-.54,1.13-1a20.79,20.79,0,0,0,7.13-7.88,21.87,21.87,0,0,0,2.76-10.51,14.17,14.17,0,0,0-2.14-8.16,6.53,6.53,0,0,0-5.61-3.14q-11.13,0-19.93,20.65-1.51,3.57-9.23,27.55-8.37,25.8-19.7,31.7a28.41,28.41,0,0,0,5.33.69q7.09,0,12-7.47a82.72,82.72,0,0,0,7.75-14.94c.29-.58.49-.88.62-.88a.25.25,0,0,1,.16.26c0,.41-1.22,3.16-3.66,8.22q-4.32,9-7.92,12.33a12.45,12.45,0,0,1-8.82,3.36,30.82,30.82,0,0,1-7-.88,13.25,13.25,0,0,1-5.26,1.26c-1.35,0-2-.46-2-1.38s1.06-1.57,3.19-1.57a17.25,17.25,0,0,1,4.48.75,24.28,24.28,0,0,0,7.83-9q2.88-5.78,8.6-24.16l.62-2.07H120.57a126.58,126.58,0,0,1-6.35,16.25A46.85,46.85,0,0,1,107,92.32q-9.93,10.92-19.16,10.92a11.32,11.32,0,0,1-8.74-3.68A13.6,13.6,0,0,1,75.75,90a11.8,11.8,0,0,1,1.13-5.33c.76-1.51,1.68-2.26,2.77-2.26q2.53,0,2.53,4.14A7.15,7.15,0,0,1,81.4,90a2.26,2.26,0,0,1-2,1.45c-1.22,0-1.83-1-1.83-3,.08-1,0-1.57-.23-1.57-.47,0-.7,1.11-.7,3.32a12.07,12.07,0,0,0,3,8.45A9.93,9.93,0,0,0,87.36,102q8.22,0,14.4-7.88t14-28.27h-12l.32-1.26h12.15c.31-.83.84-2.17,1.6-4Q126,39.21,133.26,30.74a31.33,31.33,0,0,1,4.05-3.92c1.69-1.4,2.72-2.1,3.11-2.1a.51.51,0,0,1,.24.5c0,.25-.26.54-.78.88q-4.78,3.13-8.57,10.79T121,64.57h15.18q7.28-21,15.83-32.6t16.68-11.65a7.69,7.69,0,0,1,6.52,3.49A15,15,0,0,1,177.68,32.81Zm-50.49,1.51q0,1.32-2.3,5.27-3.42,6-6.54,6c-1.48,0-2.71-.84-3.7-2.54a12.16,12.16,0,0,1-1.48-6.24,30,30,0,0,1,1.6-8.6q2-6.41,2-8.85a7.1,7.1,0,0,0-1.87-5.15,6.46,6.46,0,0,0-4.9-1.94q-8.69,0-16.32,11.26A42.22,42.22,0,0,0,86,47.56c0,4.4.83,8,2.5,10.77S92.34,62.5,95,62.5q7.67,0,12.92-11.42c.06-.25.13-.4.24-.44s.31.19.31.56q0,1.32-2.49,4.84-5.14,7.47-11.14,7.47c-2.8,0-5.09-1.47-6.85-4.4s-2.65-6.73-2.65-11.42a43.44,43.44,0,0,1,7.81-25q7.8-11.46,17.07-11.46,8.15,0,8.14,11.55a33.41,33.41,0,0,1-1.68,9.48A33,33,0,0,0,115,39.59q0,4.77,3.19,4.77,1.95,0,4.44-3a21.23,21.23,0,0,0,3.86-7c.13-.41.26-.62.39-.62S127.19,34,127.19,34.32Z" transform="translate(-0.65 0.39)"/></svg>